<svg data-v-423bf9ae="" xmlns="http://www.w3.org/2000/svg" viewBox="0 0 571 107" class="iconLeft"><!----><!----><!----><g data-v-423bf9ae="" id="09b74d96-27df-45f9-aeed-b923ea391551" fill="white" transform="matrix(5.714285714285714,0,0,5.714285714285714,96.19925274167741,21.952131003141403)"><path d="M2.72 10.50L3.43 6.73L5.52 6.73C8.02 6.73 9.56 5.56 9.95 3.53C10.40 1.16 8.65 0.42 6.62 0.42L3.00 0.42L1.06 10.50ZM4.37 1.88L6.37 1.88C7.70 1.88 8.50 2.30 8.26 3.57C8.05 4.59 7.29 5.28 5.75 5.28L3.72 5.28ZM11.61 10.50L12.31 6.82C12.57 5.40 13.37 4.47 14.57 4.47C15.01 4.47 15.25 4.59 15.50 4.77L16.11 3.39C15.82 3.12 15.46 3.01 14.90 3.01C13.94 3.01 13.27 3.50 12.63 4.48L12.87 3.22L11.44 3.22L10.05 10.50ZM22.32 8.37L20.90 8.06C20.51 8.93 19.73 9.42 18.94 9.42C17.93 9.42 17.18 8.76 17.39 7.28L19.75 7.28C21.34 7.28 22.69 6.80 22.74 5.17C22.76 4.00 21.77 3.01 20.08 3.01C18.12 3.01 16.39 4.35 15.90 6.86C15.43 9.37 16.62 10.71 18.59 10.71C20.23 10.71 21.55 9.93 22.32 8.37ZM19.81 4.31C20.52 4.31 21.20 4.61 21.18 5.19C21.17 5.88 20.69 6.13 19.92 6.13L17.64 6.13C18.06 4.89 19.00 4.31 19.81 4.31ZM23.13 8.40C22.97 9.83 23.95 10.71 25.73 10.71C27.34 10.71 28.88 10.04 29.19 8.43C29.46 7.03 28.59 6.52 27.76 6.30L25.90 5.84C25.51 5.74 25.19 5.52 25.28 5.11C25.38 4.56 26.10 4.26 26.88 4.26C27.68 4.26 28.21 4.56 28.13 5.33L29.51 5.33C29.81 3.99 28.90 3.01 27.16 3.01C25.62 3.01 24.16 3.65 23.84 5.22C23.62 6.43 24.36 6.96 25.27 7.20L27.03 7.64C27.61 7.80 27.82 8.05 27.72 8.53C27.58 9.25 26.68 9.46 26.01 9.46C24.96 9.46 24.54 8.90 24.57 8.18L23.13 8.40ZM30.10 8.40C29.95 9.83 30.93 10.71 32.70 10.71C34.31 10.71 35.85 10.04 36.16 8.43C36.43 7.03 35.56 6.52 34.73 6.30L32.87 5.84C32.48 5.74 32.16 5.52 32.26 5.11C32.35 4.56 33.07 4.26 33.85 4.26C34.65 4.26 35.18 4.56 35.10 5.33L36.48 5.33C36.78 3.99 35.87 3.01 34.13 3.01C32.59 3.01 31.14 3.65 30.81 5.22C30.59 6.43 31.33 6.96 32.24 7.20L34.01 7.64C34.58 7.80 34.79 8.05 34.69 8.53C34.55 9.25 33.66 9.46 32.98 9.46C31.93 9.46 31.51 8.90 31.54 8.18L30.10 8.40ZM44.07 4.83L39.37 1.62L39.05 3.30L42.57 5.59L38.16 7.90L37.83 9.59L43.78 6.38ZM52.05 4.83L47.35 1.62L47.03 3.30L50.55 5.59L46.14 7.90L45.81 9.59L51.76 6.38ZM54.94 10.50L55.76 6.10L60.19 6.10L60.48 4.62L56.06 4.62L56.57 1.90L61.84 1.90L62.13 0.42L55.22 0.42L53.28 10.50ZM62.89 10.50L64.86 0.21L63.20 0.77L61.33 10.50ZM64.79 6.86C64.32 9.37 65.53 10.71 67.52 10.71C69.51 10.71 71.26 9.37 71.74 6.86C72.24 4.35 70.99 3.01 69.01 3.01C67.02 3.01 65.28 4.35 64.79 6.86ZM66.35 6.86C66.68 5.10 67.70 4.31 68.77 4.31C69.82 4.31 70.53 5.10 70.18 6.86C69.86 8.62 68.84 9.42 67.77 9.42C66.72 9.42 66.01 8.62 66.35 6.86ZM75.03 10.50L77.50 5.17L77.84 10.50L79.31 10.50L82.96 3.22L81.48 3.22L78.95 8.54L78.60 3.22L77.13 3.22L74.68 8.69L74.28 3.22L72.72 3.22L73.53 10.50Z"></path></g><!----><g data-v-423bf9ae="" id="4461625e-c851-463b-bb69-d71d21729b09" transform="matrix(1.0868111504448785,0,0,1.0868111504448785,-13.255261890115804,-0.23894260335429607)" stroke="none" fill="white"><g clip-rule="evenodd"><path d="M12.983 10.59l17.018 88.223-5.872-59.049 29.021-1.892-.054-9.883L64.549 1 53.622 18.977z"></path><path d="M59.389 54.548l5.16-53.541-8.74 39.716-19.612 1.045 1.57 20.462-7.766 36.583 12.057-39.899z"></path><path d="M62.8 67.182l.549-10.453-15.979 3.755-.032 11.797-17.337 26.532 21.68-27.616zM65.711 62.394l14.841-4.731 1.509-12.532-15.899 2.095zM72.07 44.502l10.988-1.417 1.581-10.278-8.079-.373L64.549 1l8.43 30.967z"></path><path d="M87.413 31.294l1.256-9.506-9.544-2.694L64.549 1l14.483 22.437-.422 7z"></path></g></g><!----></svg>